<svg xmlns="http://www.w3.org/2000/svg" viewBox="0 0 64 64" width="64" height="64" role="img" aria-label="Simplicio Agent">
  <defs>
    <linearGradient id="sGrad" x1="0" y1="0" x2="1" y2="1">
      <stop offset="0" stop-color="#7CFC00"/>
      <stop offset="1" stop-color="#5fce00"/>
    </linearGradient>
  </defs>
  <!-- rounded square background -->
  <rect x="2" y="2" width="60" height="60" rx="14" fill="#0c0f0c"/>
  <rect x="2.5" y="2.5" width="59" height="59" rx="13.5" fill="none" stroke="#FFD700" stroke-width="2"/>
  <!-- stylized S -->
  <path d="M44 22 c0 -5 -4 -8 -10 -8 H21 v7 h12 c2.4 0 4 1 4 3.2 0 2.3 -1.7 3.3 -4.4 3.3 H27 c-6 0 -9 2.8 -9 8.2 0 5.4 3.6 8.3 9.6 8.3 H40 v-7 H28 c-2.3 0 -3.8 -1 -3.8 -3 0 -2.1 1.6 -3.1 4 -3.1 h6.4 c6 0 9.4 -3 9.4 -8.3 Z"
        fill="url(#sGrad)"/>
  <!-- gold accent dot -->
  <circle cx="46" cy="44" r="3.4" fill="#FFD700"/>
</svg>
